# xmcd CD database file
#
# Track frame offsets:
#	150
#	21420
#	47472
#	75169
#	99373
#	124190
#	143281
#	167615
#	178865
#
# Disc length: 2640 seconds
#
# Revision: 0
# Processed by: cddbd v1.5.2PL0 Copyright (c) Steve Scherf et al.
# Submitted via: CDex 1.51
#
DISCID=610a4e09
DTITLE=Ray Lema - Transcendance
DYEAR=2018
DGENRE=Jazz
TTITLE0=Transcendance
TTITLE1=Zoukissa
TTITLE2=Congo Rhapsody
TTITLE3=Kivu's Blues
TTITLE4=Anouk
TTITLE5=Sin
TTITLE6=3ème Bureau
TTITLE7=Le Bout Du Chemin
TTITLE8=Chimères
EXTD=YEAR: 2018
EXTT0=
EXTT1=
EXTT2=
EXTT3=
EXTT4=
EXTT5=
EXTT6=
EXTT7=
EXTT8=
PLAYORDER=
